<?xml version="1.0" standalone="no"?><!DOCTYPE svg PUBLIC "-//W3C//DTD SVG 1.1//EN" "http://www.w3.org/Graphics/SVG/1.1/DTD/svg11.dtd"><svg t="1739723765240" class="icon" viewBox="0 0 1026 1024" version="1.1" xmlns="http://www.w3.org/2000/svg" p-id="1773" xmlns:xlink="http://www.w3.org/1999/xlink" width="200.390625" height="200"><path d="M1013.847 468.072h5.728v5.728c0 2.865-2.864 11.457-2.864 14.321v2.865c-2.864 2.864-2.864 8.592-5.729 11.456-8.592 8.593-22.913 14.321-42.962 22.914-31.507 14.32-83.062 22.914-131.753 22.914-17.186 0-34.37-2.865-48.692-2.865-45.827-5.728-77.333-8.592-85.926 31.506-8.592 51.556 40.099 114.568 40.099 114.568v2.865h-2.864s-77.333-34.37-80.198-37.235l-2.864-2.864-2.864-2.864c-5.728-5.729-17.185-17.186-40.099-45.828-45.827-54.42-100.247-60.148-140.345-48.69-11.457 2.863-22.914 8.592-31.507 17.184-22.913 20.05-20.049 63.013-17.185 80.198 2.864 17.185 2.864 20.05 2.864 20.05v2.863h-2.864l-63.012-31.506-2.864-11.457c-2.864-5.728-2.864-14.32-5.729-22.913-22.913-60.148-74.469-103.111-128.888-114.568-37.235-5.728-105.976-8.593-143.21 63.012-14.321 28.642-14.321 65.877 2.864 97.383s48.691 54.42 83.062 57.284c34.37 2.864 63.012-5.728 77.333-22.914 14.32-20.049 17.185-45.827 8.592-68.74-11.456-22.914-28.641-37.235-54.42-37.235-17.184-2.864-31.505 5.728-37.234 14.321-2.864 2.864-2.864 5.728-2.864 14.321 0 17.185 17.185 22.914 20.05 22.914 0 0 5.728 0 11.456-2.865h8.593c11.457-2.864 22.913 5.729 25.778 17.186v5.728c0 8.593-2.865 14.321-11.457 20.05-2.864 2.864-5.729 2.864-8.593 5.728-8.592 2.864-17.185 5.728-25.778 5.728-28.642 0-65.876-22.913-68.74-68.74 0-25.778 11.456-48.692 34.37-63.013 25.778-17.185 71.605-22.913 111.704 2.864 51.555 31.506 63.012 91.655 51.555 134.618-20.05 60.148-74.469 91.654-146.074 85.925-51.555-5.728-97.382-31.506-126.024-71.604-11.457-17.186-22.914-37.235-25.778-57.284-11.457-45.828 0-94.519 8.592-114.568 28.642-68.741 80.198-126.025 157.531-174.716l5.729-2.864c163.259-100.247 277.827-94.519 360.888-91.655 100.247 2.864 206.222 37.235 220.543 42.963v-31.506c5.729 0 148.939 22.914 209.087 57.284 8.592 5.728 11.457 8.593 14.32 14.321 17.186 17.185 37.235 88.79 40.1 103.111v2.864s-2.865 2.864-5.729 2.864c-14.32 8.593-45.827 31.507-88.79 28.642-37.235-2.864-85.926-25.777-146.074-63.012 2.864 5.728 14.321 34.37 17.185 40.099 8.593 5.728 91.654 45.827 131.753 45.827 31.506-17.185 65.877-34.37 80.198-42.963z m-37.235-83.062c0-34.37-25.778-63.012-60.148-63.012-17.185 0-31.506 5.728-42.963 17.185-11.457 11.457-20.05 25.778-20.05 42.963 0 34.37 25.778 63.012 60.149 63.012 17.185 0 31.506-5.728 42.963-17.185 11.457-11.457 20.05-25.777 20.05-42.963z m-57.284-45.827c22.914 0 42.963 20.05 42.963 45.827 0 11.457-5.728 22.914-14.32 31.506-8.593 8.593-20.05 11.457-31.507 11.457-22.914 0-42.963-20.05-42.963-45.827 0-11.457 5.728-22.913 14.321-31.506 8.593-5.728 20.05-11.457 31.506-11.457z m25.778 34.37c0-5.728-8.593-11.456-20.05-11.456-11.456 0-20.049 5.728-20.049 11.457 0 5.728 8.593 11.456 20.05 11.456 11.456 2.865 20.049-2.864 20.049-11.456z" p-id="1774"></path></svg>